<svg fill="none" height="100%" width="100%" viewBox="0 0 600 600" xmlns:xlink="http://www.w3.org/1999/xlink" xmlns="http://www.w3.org/2000/svg"><g visibility="hidden" id="i0"><animate repeatCount="indefinite" begin="0s" calcMode="discrete" dur="3.133s" values="hidden; visible; visible; visible" keyTimes="0; 0.531943; 0.999894; 1" attributeName="visibility" /><g transform="translate(299.988,299.91)"><g transform="scale(0,0)"><animateTransform repeatCount="indefinite" type="scale" attributeName="transform" dur="3.133s" begin="0s" calcMode="spline" values="0 0; 0 0; 1.16 1.16; 1 1; 1 1" keyTimes="0; 0.531915; 0.648936; 0.712766; 1" keySplines="0 0 1 1; 0.333 0 0.046 1; 0.333 0.032 0.019 1; 0 0 1 1" fill="freeze" /><g transform="translate(-190.878,-189.014)"><g id="i1" transform="matrix(1,0,0,1,190.878,189.015)"><path fill="#2563eb" d="M49.728,-183.893C49.728,-183.893,75.948,-160.861,75.948,-160.861C77.997,-159.061,80.469,-157.809,83.134,-157.221C83.134,-157.221,117.251,-149.704,117.251,-149.704C122.543,-148.538,126.897,-144.801,128.834,-139.758C128.834,-139.758,141.329,-107.249,141.329,-107.249C142.305,-104.71,143.913,-102.457,146,-100.704C146,-100.704,172.734,-78.264,172.734,-78.264C176.88,-74.783,178.995,-69.461,178.36,-64.104C178.36,-64.104,174.265,-29.568,174.265,-29.568C173.945,-26.87,174.319,-24.134,175.352,-21.617C175.352,-21.617,188.578,10.606,188.578,10.606C190.628,15.604,190.02,21.29,186.957,25.734C186.957,25.734,167.211,54.389,167.211,54.389C165.669,56.628,164.724,59.22,164.465,61.924C164.465,61.924,161.152,96.546,161.152,96.546C160.638,101.918,157.446,106.665,152.657,109.178C152.657,109.178,121.785,125.385,121.785,125.385C119.373,126.651,117.325,128.507,115.833,130.78C115.833,130.78,96.742,159.871,96.742,159.871C93.781,164.383,88.735,167.105,83.317,167.112C83.317,167.112,48.39,167.159,48.39,167.159C45.662,167.162,42.981,167.856,40.598,169.176C40.598,169.176,10.101,186.072,10.101,186.072C5.371,188.692,-0.371,188.764,-5.177,186.263C-5.177,186.263,-36.157,170.138,-36.157,170.138C-38.577,168.878,-41.278,168.253,-44.005,168.317C-44.005,168.317,-78.921,169.146,-78.921,169.146C-84.337,169.275,-89.46,166.681,-92.553,162.244C-92.553,162.244,-112.489,133.642,-112.489,133.642C-114.046,131.409,-116.148,129.604,-118.596,128.399C-118.596,128.399,-149.931,112.972,-149.931,112.972C-154.792,110.579,-158.123,105.914,-158.793,100.558C-158.793,100.558,-163.119,66.033,-163.119,66.033C-163.457,63.336,-164.477,60.765,-166.084,58.567C-166.084,58.567,-186.661,30.418,-186.661,30.418C-189.853,26.051,-190.628,20.383,-188.724,15.336C-188.724,15.336,-176.447,-17.206,-176.447,-17.206C-175.488,-19.748,-175.194,-22.493,-175.593,-25.182C-175.593,-25.182,-180.697,-59.604,-180.697,-59.604C-181.489,-64.943,-179.531,-70.315,-175.488,-73.898C-175.488,-73.898,-149.422,-97.001,-149.422,-97.001C-147.386,-98.806,-145.844,-101.096,-144.943,-103.66C-144.943,-103.66,-133.405,-136.47,-133.405,-136.47C-131.616,-141.56,-127.374,-145.405,-122.117,-146.703C-122.117,-146.703,-88.233,-155.074,-88.233,-155.074C-85.586,-155.727,-83.151,-157.041,-81.156,-158.891C-81.156,-158.891,-55.62,-182.572,-55.62,-182.572C-51.659,-186.246,-46.104,-187.684,-40.839,-186.4C-40.839,-186.4,-6.899,-178.12,-6.899,-178.12C-4.248,-177.474,-1.476,-177.507,1.156,-178.22C1.156,-178.22,34.84,-187.349,34.84,-187.349C40.066,-188.765,45.661,-187.466,49.728,-183.893Z" /></g></g></g></g></g><g transform="matrix(1,0,0,1,162.622,190.691)" visibility="hidden" id="i2"><animate repeatCount="indefinite" begin="0s" calcMode="discrete" dur="3.133s" values="hidden; visible; visible; visible" keyTimes="0; 0.573939; 0.999894; 1" attributeName="visibility" /><g id="i1" transform="matrix(1,0,0,1,137.378,109.308)"><path stroke-miterlimit="10" stroke-width="21" stroke="#ffffff" d="M-84.878,0.669"><set fill="freeze" dur="0.033s" begin="1.8s" to="M-84.878,0.669" attributeName="d" /><set fill="freeze" dur="0.033s" begin="1.8333333333333333s" to="M-84.878,0.669C-84.878,0.669,-81.167,4.38,-75.653,9.894" attributeName="d" /><set fill="freeze" dur="0.033s" begin="1.8666666666666667s" to="M-84.878,0.669C-84.878,0.669,-61.623,23.924,-45.048,40.499" attributeName="d" /><set fill="freeze" dur="0.033s" begin="1.9s" to="M-84.878,0.669C-84.878,0.669,-28.738,56.809,-28.738,56.809C-28.738,56.809,-17.481,45.552,-2.054,30.125" attributeName="d" /><set fill="freeze" dur="0.033s" begin="1.9333333333333333s" to="M-84.878,0.669C-84.878,0.669,-28.738,56.809,-28.738,56.809C-28.738,56.809,4.31,23.76,34.759,-6.689" attributeName="d" /><set fill="freeze" dur="0.033s" begin="1.9666666666666666s" to="M-84.878,0.669C-84.878,0.669,-28.738,56.809,-28.738,56.809C-28.738,56.809,26.264,1.806,59.73,-31.66" attributeName="d" /><set fill="freeze" dur="0.033s" begin="2s" to="M-79.457,6.09C-65.378,20.169,-28.738,56.809,-28.738,56.809C-28.738,56.809,47.054,-18.984,74.831,-46.762" attributeName="d" /><set fill="freeze" dur="0.033s" begin="2.033333333333333s" to="M-75.444,10.103C-59.452,26.095,-28.738,56.809,-28.738,56.809C-28.738,56.809,66.547,-38.478,82.596,-54.527" attributeName="d" /><set fill="freeze" dur="0.033s" begin="2.066666666666667s" to="M-74.693,10.854C-58.51,27.037,-28.738,56.809,-28.738,56.809C-28.738,56.809,84.878,-56.809,84.878,-56.809M-84.878,0.669" attributeName="d" /><set fill="freeze" dur="0.033s" begin="2.1s" to="M-77.269,8.278C-61.928,23.619,-28.738,56.809,-28.738,56.809C-28.738,56.809,58.652,-30.583,80.146,-52.077" attributeName="d" /><set fill="freeze" dur="0.033s" begin="2.1333333333333333s" to="M-82.151,3.396C-70.908,14.639,-28.738,56.809,-28.738,56.809C-28.738,56.809,49.524,-21.455,76.14,-48.071" attributeName="d" /><set fill="freeze" dur="0.033s" begin="2.1666666666666665s" to="M-84.345,1.202C-78.62,6.927,-28.738,56.809,-28.738,56.809C-28.738,56.809,47.303,-19.234,74.968,-46.898" attributeName="d" /><set fill="freeze" dur="0.033s" begin="2.2s" to="M-84.878,0.669C-84.878,0.669,-28.738,56.809,-28.738,56.809C-28.738,56.809,46.804,-18.734,74.693,-46.624" attributeName="d" /></path></g></g><g transform="matrix(1,0,0,1,300,300)" visibility="visible" id="i3"><animate repeatCount="indefinite" begin="0s" calcMode="discrete" dur="3.133s" values="visible; hidden; hidden; hidden" keyTimes="0; 0.265972; 0.999894; 1" attributeName="visibility" /><g id="i4" transform="matrix(1,0,0,1,1.93,-10.07)"><ellipse stroke-dashoffset="-75" stroke-dasharray="0 100" pathLength="100" ry="183.929" rx="183.929" cy="0" cx="0" stroke-width="20" stroke="#e4e4e4"><animate repeatCount="indefinite" fill="freeze" begin="0s" dur="3.133s" calcMode="spline" keySplines="0.829 0 0.333 1; 0.829 0 0.333 1; 0.829 0 0.333 1; 0 0 1 1" keyTimes="0; 0.117021; 0.148936; 0.265957; 1" values="0 100; 94.929 5.071; 94.429 5.571; 0 100; 0 100" attributeName="stroke-dasharray" /><animate repeatCount="indefinite" fill="freeze" begin="0s" dur="3.133s" calcMode="spline" keySplines="0.829 0 0.333 1; 0.829 0 0.333 1; 0.829 0 0.333 1; 0 0 1 1" keyTimes="0; 0.117021; 0.148936; 0.265957; 1" values="-75; -75; -80.571; -75; -75" attributeName="stroke-dashoffset" /></ellipse></g></g><g transform="matrix(1,0,0,1,300,300)" visibility="hidden" id="i5"><animate repeatCount="indefinite" begin="0s" calcMode="discrete" dur="3.133s" values="hidden; visible; hidden; hidden; hidden" keyTimes="0; 0.265972; 0.531943; 0.999894; 1" attributeName="visibility" /><g id="i4" transform="matrix(1,0,0,1,1.93,-10.07)"><ellipse stroke-dashoffset="-75" stroke-dasharray="0 100" pathLength="100" ry="183.929" rx="183.929" cy="0" cx="0" stroke-width="20" stroke="#e4e4e4"><animate repeatCount="indefinite" fill="freeze" begin="0s" dur="3.133s" calcMode="spline" keySplines="0 0 1 1; 0.829 0 0.333 1; 0.829 0 0.333 1; 0.829 0 0.333 1; 0 0 1 1" keyTimes="0; 0.265957; 0.382979; 0.414894; 0.531915; 1" values="0 100; 0 100; 94.929 5.071; 94.429 5.571; 0 100; 0 100" attributeName="stroke-dasharray" /><animate repeatCount="indefinite" fill="freeze" begin="0s" dur="3.133s" calcMode="spline" keySplines="0 0 1 1; 0.829 0 0.333 1; 0.829 0 0.333 1; 0.829 0 0.333 1; 0 0 1 1" keyTimes="0; 0.265957; 0.382979; 0.414894; 0.531915; 1" values="-75; -75; -75; -80.571; -75; -75" attributeName="stroke-dashoffset" /></ellipse></g></g></svg>