<svg preserveAspectRatio="none" width="100%" height="100%" overflow="visible" style="display: block;" viewBox="0 0 23.3327 22.374" fill="none" xmlns="http://www.w3.org/2000/svg">
<path id="Vector" d="M10.5188 11.952L8.93418 10.3946C8.73382 10.1943 8.48355 10.0941 8.18338 10.0941C7.88321 10.0941 7.62347 10.2034 7.40417 10.422C7.20381 10.6223 7.10363 10.8773 7.10363 11.187C7.10363 11.4966 7.20381 11.7516 7.40417 11.952L9.75383 14.3016C9.9724 14.5202 10.2274 14.6295 10.5188 14.6295C10.8103 14.6295 11.0653 14.5202 11.2838 14.3016L15.9285 9.65696C16.1471 9.43839 16.2516 9.18339 16.2422 8.89196C16.2327 8.60053 16.1282 8.34552 15.9285 8.12695C15.7099 7.90838 15.4506 7.79472 15.1504 7.78598C14.8502 7.77723 14.5905 7.88179 14.3712 8.09963L10.5188 11.952ZM7.45881 21.8424L5.87415 19.1649L2.86877 18.5092C2.59556 18.4545 2.37698 18.3136 2.21305 18.0862C2.04912 17.8589 1.98537 17.6083 2.0218 17.3343L2.32234 14.247L0.273216 11.8973C0.0910722 11.697 0 11.4602 0 11.187C0 10.9138 0.0910722 10.677 0.273216 10.4766L2.32234 8.12695L2.0218 5.03961C1.98537 4.76639 2.04912 4.51576 2.21305 4.28771C2.37698 4.05967 2.59556 3.91869 2.86877 3.86478L5.87415 3.20906L7.45881 0.531534C7.60453 0.294747 7.80488 0.135188 8.05989 0.0528591C8.31489 -0.0294701 8.56989 -0.0156272 8.82489 0.094388L11.6663 1.29654L14.5078 0.094388C14.7628 -0.0148986 15.0178 -0.0287415 15.2728 0.0528591C15.5278 0.13446 15.7282 0.294018 15.8739 0.531534L17.4585 3.20906L20.4639 3.86478C20.7371 3.91942 20.9557 4.06076 21.1196 4.28881C21.2836 4.51685 21.3473 4.76712 21.3109 5.03961L21.0103 8.12695L23.0595 10.4766C23.2416 10.677 23.3327 10.9138 23.3327 11.187C23.3327 11.4602 23.2416 11.697 23.0595 11.8973L21.0103 14.247L21.3109 17.3343C21.3473 17.6076 21.2836 17.8582 21.1196 18.0862C20.9557 18.3143 20.7371 18.4553 20.4639 18.5092L17.4585 19.1649L15.8739 21.8424C15.7282 22.0792 15.5278 22.2388 15.2728 22.3211C15.0178 22.4034 14.7628 22.3896 14.5078 22.2796L11.6663 21.0774L8.82489 22.2796C8.56989 22.3889 8.31489 22.4027 8.05989 22.3211C7.80488 22.2395 7.60453 22.0799 7.45881 21.8424Z" fill="#2563EB"/>
</svg>
