<svg width="18" height="18" viewBox="0 0 18 18" fill="none" xmlns="http://www.w3.org/2000/svg">
<path d="M7.65002 16.2H5.85002C4.35886 16.2 3.15002 14.9912 3.15002 13.5V4.5C3.15002 3.00883 4.35886 1.8 5.85002 1.8H12.15C13.6412 1.8 14.85 3.00883 14.85 4.5V6.75M11.7 5.4H5.85002M9.00002 8.1H5.85002M7.65002 10.8H5.85002M10.35 11.025L11.3925 10.5037C12.1527 10.1237 13.0474 10.1237 13.8075 10.5037L14.85 11.025C14.85 11.025 14.85 12.6675 14.85 13.5338C14.85 14.4 14.0493 14.9848 12.6 15.9C11.1508 14.9848 10.35 14.2125 10.35 13.5338V11.025Z" stroke="#2563EB" stroke-width="2" stroke-linecap="round" stroke-linejoin="round"/>
</svg>
