<svg width="9" height="9" viewBox="0 0 9 9" fill="none" xmlns="http://www.w3.org/2000/svg">
<path d="M8.73359 1.53701C9.08499 1.18561 9.08499 0.614943 8.73359 0.263547C8.3822 -0.087849 7.81153 -0.087849 7.46013 0.263547L4.49997 3.22652L1.53701 0.266358C1.18561 -0.0850378 0.614943 -0.0850378 0.263547 0.266358C-0.087849 0.617754 -0.087849 1.18842 0.263547 1.53982L3.22652 4.49997L0.266358 7.46294C-0.0850377 7.81434 -0.0850377 8.38501 0.266358 8.7364C0.617754 9.0878 1.18842 9.0878 1.53982 8.7364L4.49997 5.77343L7.46295 8.73359C7.81434 9.08499 8.38501 9.08499 8.7364 8.73359C9.0878 8.3822 9.0878 7.81153 8.7364 7.46013L5.77343 4.49997L8.73359 1.53701Z" fill="#9CA3AF"/>
</svg>
