<svg width="30" height="30" viewBox="0 0 30 30" fill="none" xmlns="http://www.w3.org/2000/svg">
<path d="M7.36607 19.2861C5.36897 19.2861 3.75 18.0364 3.75 16.2039C3.75 14.3715 5.36897 12.8859 7.36607 12.8859C7.50188 12.8859 7.63594 12.8928 7.76786 12.9062V12.8859H7.81759C7.78477 12.6444 7.76786 12.3983 7.76786 12.1486C7.76786 8.8909 10.646 6.25 14.1964 6.25C16.6007 6.25 18.6966 7.46102 19.7993 9.25452C20.0688 9.21815 20.3445 9.19931 20.625 9.19931C23.7316 9.19931 26.25 11.5101 26.25 14.3606C26.25 16.7071 24.5434 18.4959 22.207 19.0855M14.8225 23.75V15.2823M18.5156 18.7745L14.8225 15.2823L11.1328 18.7745" stroke="#2563EB" stroke-width="2" stroke-linecap="round" stroke-linejoin="round"/>
</svg>
