<svg width="24" height="20" viewBox="0 0 24 20" fill="none" xmlns="http://www.w3.org/2000/svg">
<path d="M14.4251 1.20222H19.2339C19.8989 1.20222 20.4361 1.73945 20.4361 2.40443C20.4361 3.06941 19.8989 3.60665 19.2339 3.60665H14.9661C14.7707 4.57593 14.1058 5.37616 13.2228 5.75937V16.831H19.2339C19.8989 16.831 20.4361 17.3683 20.4361 18.0332C20.4361 18.6982 19.8989 19.2355 19.2339 19.2355H12.0206H4.80737C4.1424 19.2355 3.60515 18.6982 3.60515 18.0332C3.60515 17.3683 4.1424 16.831 4.80737 16.831H10.8184V5.75937C9.9356 5.37241 9.2706 4.57218 9.07523 3.60665H4.80737C4.1424 3.60665 3.60515 3.06941 3.60515 2.40443C3.60515 1.73945 4.1424 1.20222 4.80737 1.20222H9.61623C10.1648 0.473373 11.0363 0 12.0206 0C13.005 0 13.8766 0.473373 14.4251 1.20222ZM16.5139 12.0222H21.954L19.2339 7.35606L16.5139 12.0222ZM19.2339 15.6288C16.8708 15.6288 14.9059 14.3515 14.5003 12.6646C14.4026 12.2514 14.5378 11.8268 14.752 11.4587L18.3285 5.32732C18.5163 5.00423 18.862 4.80887 19.2339 4.80887C19.6059 4.80887 19.9515 5.00798 20.1393 5.32732L23.716 11.4587C23.9302 11.8268 24.0654 12.2514 23.9677 12.6646C23.5619 14.3515 21.5971 15.6288 19.2339 15.6288ZM4.76229 7.35606L2.04227 12.0222H7.48606L4.76229 7.35606ZM0.0323141 12.6646C-0.065366 12.2514 0.0698833 11.8268 0.284028 11.4587L3.86063 5.32732C4.04847 5.00423 4.3941 4.80887 4.76604 4.80887C5.13798 4.80887 5.48362 5.00798 5.67146 5.32732L9.24806 11.4587C9.4622 11.8268 9.59745 12.2514 9.49977 12.6646C9.09027 14.3515 7.12539 15.6288 4.76229 15.6288C2.39918 15.6288 0.438062 14.3515 0.0323141 12.6646Z" fill="#94A3B8"/>
</svg>
