<svg width="18" height="20" viewBox="0 0 18 20" fill="none" xmlns="http://www.w3.org/2000/svg">
<path d="M8.56899 0.0175798C8.69009 -0.00585994 8.8151 -0.00585994 8.9362 0.0175798L16.7494 1.58023C17.187 1.66618 17.5034 2.05293 17.5034 2.49829C17.5034 2.94365 17.187 3.33041 16.7494 3.41635L13.753 4.01797V6.24866C13.753 9.01065 11.5146 11.2491 8.7526 11.2491C5.99061 11.2491 3.75211 9.01065 3.75211 6.24866V4.01797L1.87692 3.64294V6.18615L2.49026 9.24895C2.52543 9.43256 2.47854 9.62399 2.36134 9.76853C2.24415 9.91308 2.06444 9.99903 1.87692 9.99903H0.6268C0.439282 9.99903 0.263484 9.91699 0.142378 9.76853C0.0212722 9.62008 -0.0256074 9.43256 0.0134589 9.24895L0.6268 6.18615V3.38119C0.25567 3.25227 0.00173908 2.90067 0.00173908 2.49829C0.00173908 2.05293 0.318176 1.66618 0.755719 1.58023L8.56899 0.0175798ZM4.37326 12.8001C4.78346 12.6672 5.22491 12.8158 5.52181 13.1322L8.29552 16.0817C8.54163 16.3434 8.95964 16.3434 9.20576 16.0817L11.9795 13.1322C12.2764 12.8158 12.7178 12.6672 13.128 12.8001C15.6673 13.6165 17.5034 15.9918 17.5034 18.8006C17.5034 19.4648 16.9644 20 16.3041 20H1.20108C0.540854 20 0.00173908 19.4609 0.00173908 18.8006C0.00173908 15.9918 1.83786 13.6165 4.37326 12.8001Z" fill="#94A3B8"/>
</svg>
