<svg width="12" height="10" viewBox="0 0 12 10" fill="none" xmlns="http://www.w3.org/2000/svg">
<path d="M0.9 0C0.403125 0 0 0.403125 0 0.9V8.7C0 9.19688 0.403125 9.6 0.9 9.6H2.7V8.1C2.7 7.60313 3.10313 7.2 3.6 7.2C4.09687 7.2 4.5 7.60313 4.5 8.1V9.6H6.18562C6.0675 9.40872 6 9.18376 6 8.94184C6 8.06248 6.48375 7.29562 7.2 6.89438V5.09625V0.9C7.2 0.403125 6.79687 0 6.3 0H0.9ZM1.2 4.5C1.2 4.335 1.335 4.2 1.5 4.2H2.1C2.265 4.2 2.4 4.335 2.4 4.5V5.1C2.4 5.265 2.265 5.4 2.1 5.4H1.5C1.335 5.4 1.2 5.265 1.2 5.1V4.5ZM3.3 4.2H3.9C4.065 4.2 4.2 4.335 4.2 4.5V5.1C4.2 5.265 4.065 5.4 3.9 5.4H3.3C3.135 5.4 3 5.265 3 5.1V4.5C3 4.335 3.135 4.2 3.3 4.2ZM4.8 4.5C4.8 4.335 4.935 4.2 5.1 4.2H5.7C5.865 4.2 6 4.335 6 4.5V5.1C6 5.265 5.865 5.4 5.7 5.4H5.1C4.935 5.4 4.8 5.265 4.8 5.1V4.5ZM1.5 1.8H2.1C2.265 1.8 2.4 1.935 2.4 2.1V2.7C2.4 2.865 2.265 3 2.1 3H1.5C1.335 3 1.2 2.865 1.2 2.7V2.1C1.2 1.935 1.335 1.8 1.5 1.8ZM3 2.1C3 1.935 3.135 1.8 3.3 1.8H3.9C4.065 1.8 4.2 1.935 4.2 2.1V2.7C4.2 2.865 4.065 3 3.9 3H3.3C3.135 3 3 2.865 3 2.7V2.1ZM5.1 1.8H5.7C5.865 1.8 6 1.935 6 2.1V2.7C6 2.865 5.865 3 5.7 3H5.1C4.935 3 4.8 2.865 4.8 2.7V2.1C4.8 1.935 4.935 1.8 5.1 1.8ZM10.8 5.1C10.8 4.70218 10.642 4.32065 10.3606 4.03934C10.0794 3.75803 9.69784 3.6 9.3 3.6C8.90216 3.6 8.52064 3.75803 8.23936 4.03934C7.95803 4.32065 7.8 4.70218 7.8 5.1C7.8 5.49782 7.95803 5.87935 8.23936 6.16066C8.52064 6.44197 8.90216 6.6 9.3 6.6C9.69784 6.6 10.0794 6.44197 10.3606 6.16066C10.642 5.87935 10.8 5.49782 10.8 5.1ZM6.6 8.9456C6.6 9.30752 6.8925 9.6 7.25438 9.6H11.3456C11.7075 9.6 12 9.30752 12 8.9456C12 7.98187 11.2182 7.2 10.2544 7.2H8.3456C7.38187 7.2 6.6 7.98187 6.6 8.9456Z" fill="#2563EB"/>
</svg>
