<svg width="22" height="17" viewBox="0 0 22 17" fill="none" xmlns="http://www.w3.org/2000/svg">
<path d="M0 2.42859H21.8573C21.8573 1.08907 20.7682 0 19.4287 0H2.42859C1.08907 0 0 1.08907 0 2.42859ZM0 3.64288V14.5715C0 15.911 1.08907 17.0001 2.42859 17.0001H19.4287C20.7682 17.0001 21.8573 15.911 21.8573 14.5715V3.64288H0ZM2.42859 14.1655C2.42859 13.0461 3.33551 12.1429 4.45115 12.1429H8.90609C10.0255 12.1429 10.9286 13.0499 10.9286 14.1655C10.9286 14.3894 10.7465 14.5715 10.5226 14.5715H2.83462C2.61073 14.5715 2.42859 14.3894 2.42859 14.1655ZM6.67862 6.07147C7.32272 6.07147 7.94044 6.32734 8.39589 6.78278C8.85134 7.23823 9.10721 7.85596 9.10721 8.50006C9.10721 9.14416 8.85134 9.76186 8.39589 10.2174C7.94044 10.6728 7.32272 10.9286 6.67862 10.9286C6.03452 10.9286 5.41679 10.6728 4.96134 10.2174C4.5059 9.76186 4.25003 9.14416 4.25003 8.50006C4.25003 7.85596 4.5059 7.23823 4.96134 6.78278C5.41679 6.32734 6.03452 6.07147 6.67862 6.07147ZM13.3572 6.67862C13.3572 6.34469 13.6304 6.07147 13.9644 6.07147H18.8216C19.1555 6.07147 19.4287 6.34469 19.4287 6.67862C19.4287 7.01255 19.1555 7.28576 18.8216 7.28576H13.9644C13.6304 7.28576 13.3572 7.01255 13.3572 6.67862ZM13.3572 9.10721C13.3572 8.77327 13.6304 8.50006 13.9644 8.50006H18.8216C19.1555 8.50006 19.4287 8.77327 19.4287 9.10721C19.4287 9.44114 19.1555 9.71435 18.8216 9.71435H13.9644C13.6304 9.71435 13.3572 9.44114 13.3572 9.10721ZM13.3572 11.5358C13.3572 11.2018 13.6304 10.9286 13.9644 10.9286H18.8216C19.1555 10.9286 19.4287 11.2018 19.4287 11.5358C19.4287 11.8698 19.1555 12.1429 18.8216 12.1429H13.9644C13.6304 12.1429 13.3572 11.8698 13.3572 11.5358Z" fill="#2563EB"/>
</svg>
