<svg width="22" height="20" viewBox="0 0 22 20" fill="none" xmlns="http://www.w3.org/2000/svg">
<path d="M20.7719 10.9857C21.4212 10.9857 21.9943 10.4509 21.9943 9.75952C22.0324 9.41574 21.8797 9.11016 21.5741 8.84277L19.5572 7.06658V2.44465C19.5572 1.76855 19.011 1.22233 18.3349 1.22233H17.1126C16.4365 1.22233 15.8902 1.76855 15.8902 2.44465V3.84651L11.8221 0.267385C11.593 0.0763954 11.2875 0 11.02 0C10.7527 0 10.4471 0.0381977 10.1797 0.305582L0.381977 8.84277C0.114594 9.11016 0 9.41574 0 9.75952C0 10.4471 0.534768 10.9857 1.22233 10.9857H2.44465V13.648C2.44083 13.6824 2.44083 13.7168 2.44083 13.755V18.0293C2.44083 18.8735 3.12457 19.5572 3.96874 19.5572H4.5799C4.62574 19.5572 4.67158 19.5534 4.71742 19.5496C4.77471 19.5534 4.83201 19.5572 4.88931 19.5572H6.11163H7.02838C7.87255 19.5572 8.55629 18.8735 8.55629 18.0293V17.1126V14.6679C8.55629 13.9918 9.10251 13.4456 9.77862 13.4456H12.2233C12.8994 13.4456 13.4456 13.9918 13.4456 14.6679V17.1126V18.0293C13.4456 18.8735 14.1293 19.5572 14.9735 19.5572H15.8902H17.1316C17.1851 19.5572 17.2386 19.5572 17.2921 19.5534C17.3342 19.5572 17.3761 19.5572 17.4182 19.5572H18.0293C18.8735 19.5572 19.5572 18.8735 19.5572 18.0293V17.4105C19.5687 17.3112 19.5763 17.2081 19.5763 17.1011L19.5496 10.9819H20.7719V10.9857Z" fill="#94A3B8"/>
</svg>
