<svg width="47" height="47" viewBox="0 0 47 47" fill="none" xmlns="http://www.w3.org/2000/svg">
<path d="M23.4998 27.5615C29.6936 27.5615 35.1735 28.7448 39.0073 30.5434C43.0485 32.4393 44.3887 34.5405 44.3888 35.9751C44.3888 37.7935 43.3992 39.7798 40.1849 41.4552C36.8841 43.1757 31.4863 44.3888 23.4998 44.3888C15.5132 44.3888 10.1154 43.1757 6.81461 41.4552C3.60028 39.7798 2.61075 37.7935 2.61075 35.9751C2.61081 34.5405 3.95096 32.4393 7.99217 30.5434C11.826 28.7448 17.3059 27.5615 23.4998 27.5615ZM23.4998 2.61075C27.3746 2.61075 30.8582 6.38732 30.8582 10.4697C30.8582 14.4271 27.4929 17.9505 23.4998 17.9505C19.5066 17.9505 16.1413 14.4271 16.1413 10.4697C16.1413 6.38732 19.6249 2.61075 23.4998 2.61075Z" stroke="#2563EB" stroke-width="5.16667"/>
</svg>
