<svg width="14" height="18" viewBox="0 0 14 18" fill="none" xmlns="http://www.w3.org/2000/svg">
<path d="M0.492221 0.0767589C0.791069 -0.0603598 1.14266 -0.0111377 1.39228 0.20333L2.81269 1.41982L4.2331 0.20333C4.54953 -0.0673915 5.01714 -0.0673915 5.33005 0.20333L6.75046 1.41982L8.17087 0.20333C8.48729 -0.0673915 8.9549 -0.0673915 9.26782 0.20333L10.6882 1.41982L12.1086 0.20333C12.3583 -0.0111377 12.7098 -0.0603598 13.0087 0.0767589C13.3075 0.213878 13.5009 0.512726 13.5009 0.843217V17.1568C13.5009 17.4873 13.3075 17.7862 13.0087 17.9233C12.7098 18.0604 12.3583 18.0112 12.1086 17.7967L10.6882 16.5802L9.26782 17.7967C8.95139 18.0674 8.48378 18.0674 8.17087 17.7967L6.75046 16.5802L5.33005 17.7967C5.01362 18.0674 4.54601 18.0674 4.2331 17.7967L2.81269 16.5802L1.39228 17.7967C1.14266 18.0112 0.791069 18.0604 0.492221 17.9233C0.193372 17.7862 0 17.4873 0 17.1568V0.843217C0 0.512726 0.193372 0.213878 0.492221 0.0767589ZM3.37523 5.06225C3.06583 5.06225 2.81269 5.3154 2.81269 5.62479C2.81269 5.93419 3.06583 6.18733 3.37523 6.18733H10.1257C10.4351 6.18733 10.6882 5.93419 10.6882 5.62479C10.6882 5.3154 10.4351 5.06225 10.1257 5.06225H3.37523ZM2.81269 12.3752C2.81269 12.6846 3.06583 12.9378 3.37523 12.9378H10.1257C10.4351 12.9378 10.6882 12.6846 10.6882 12.3752C10.6882 12.0659 10.4351 11.8127 10.1257 11.8127H3.37523C3.06583 11.8127 2.81269 12.0659 2.81269 12.3752ZM3.37523 8.43748C3.06583 8.43748 2.81269 8.69062 2.81269 9.00002C2.81269 9.30942 3.06583 9.56256 3.37523 9.56256H10.1257C10.4351 9.56256 10.6882 9.30942 10.6882 9.00002C10.6882 8.69062 10.4351 8.43748 10.1257 8.43748H3.37523Z" fill="#0052CC"/>
</svg>
