<svg width="26" height="26" viewBox="0 0 26 26" fill="none" xmlns="http://www.w3.org/2000/svg">
<path d="M15.6 16.9L16.9 18.2M2.60104 19.0027L2.60114 9.11806C2.60114 8.12798 2.60077 6.71777 2.60046 5.69668C2.60024 4.97851 3.18235 4.39701 3.90051 4.39701H10.0952L13.0907 7.59678H22.1C22.818 7.59678 23.4 8.17884 23.4 8.89682L23.3997 19.0029C23.3996 20.4388 22.2356 21.6028 20.7997 21.6028L5.20103 21.6028C3.76508 21.6028 2.60102 20.4387 2.60104 19.0027ZM16.25 14.3C16.25 16.0949 14.7949 17.55 13 17.55C11.2051 17.55 9.75002 16.0949 9.75002 14.3C9.75002 12.5051 11.2051 11.05 13 11.05C14.7949 11.05 16.25 12.5051 16.25 14.3Z" stroke="white" stroke-width="1.833" stroke-linecap="round" stroke-linejoin="round"/>
</svg>
