<svg width="24" height="24" viewBox="0 0 24 24" fill="none" xmlns="http://www.w3.org/2000/svg">
<g transform="scale(0.9230769231)">
<path d="M15.3972 16.6803L16.6803 17.9634M2.56722 18.7557L2.56732 8.99952C2.56733 8.02231 2.56696 6.63043 2.56665 5.62261C2.56643 4.91379 3.14098 4.33984 3.8498 4.33984H9.964L12.9205 7.49802H21.8127C22.5213 7.49802 23.0958 8.0725 23.0958 8.78116L23.0955 18.7558C23.0954 20.1731 21.9465 21.322 20.5293 21.3219L5.13342 21.3219C3.71614 21.3219 2.56721 20.173 2.56722 18.7557ZM16.0388 14.1141C16.0388 15.8857 14.6026 17.3218 12.831 17.3218C11.0594 17.3218 9.62326 15.8857 9.62326 14.1141C9.62326 12.3425 11.0594 10.9063 12.831 10.9063C14.6026 10.9063 16.0388 12.3425 16.0388 14.1141Z" stroke="#2563EB" stroke-width="1.833" stroke-linecap="round" stroke-linejoin="round"/>
</g>
</svg>
