<svg xmlns="http://www.w3.org/2000/svg" viewBox="0 0 48 48">
  <path fill="#FFC107" d="M43.6 20.1H42V20H24v8h11.3c-1.1 3.1-4 5.3-7.3 5.3-4.4 0-8-3.6-8-8s3.6-8 8-8c2 0 3.8.7 5.1 1.9l5.7-5.7C35.4 10.1 29.9 8 24 8 14.1 8 6 16.1 6 26s8.1 18 18 18c9.9 0 18-8.1 18-18 0-1.2-.1-2.3-.4-3.4z"/>
  <path fill="#FF3D00" d="M6 14.7l6.6 4.8C14.4 16 18.8 12.7 24 12.7c2 0 3.8.7 5.1 1.9l5.7-5.7C35.4 10.1 29.9 8 24 8c-6.9 0-12.9 3.7-16 9.2z"/>
  <path fill="#4CAF50" d="M24 44c5.7 0 11-2.2 14.9-5.8l-6.9-5.7c-1.9 1.3-4.3 2.1-7.9 2.1-3.3 0-6.2-2.2-7.3-5.3l-6.5 5C11.1 40.5 17.1 44 24 44z"/>
  <path fill="#1976D2" d="M43.6 20.1H42V20H24v8h11.3c-.5 1.4-1.4 2.6-2.6 3.5l6.9 5.7C42.6 34.1 44 30.3 44 26c0-1.2-.1-2.3-.4-3.4z"/>
</svg>
